<svg xmlns="http://www.w3.org/2000/svg" viewBox="0 0 640 640" role="img" aria-label="Quran on wooden stand near a window">
<defs>
  <radialGradient id="bg" cx="45%" cy="35%" r="72%"><stop offset="0" stop-color="#fff7e8"/><stop offset="0.55" stop-color="#efe8d2"/><stop offset="1" stop-color="#d9c39c"/></radialGradient>
  <linearGradient id="green" x1="0" y1="0" x2="1" y2="1"><stop offset="0" stop-color="#063b2d"/><stop offset="1" stop-color="#0f7257"/></linearGradient>
  <linearGradient id="wood" x1="0" y1="0" x2="1" y2="1"><stop offset="0" stop-color="#7d4d24"/><stop offset="1" stop-color="#3f2413"/></linearGradient>
  <filter id="shadow" x="-20%" y="-20%" width="140%" height="140%"><feDropShadow dx="0" dy="16" stdDeviation="18" flood-color="#1b130a" flood-opacity=".25"/></filter>
</defs>
<rect width="640" height="640" fill="url(#bg)"/>
<g opacity=".25" stroke="#b9955f" stroke-width="5" fill="none">
  <path d="M120 70h145v190H120zM150 70v190M185 70v190M220 70v190M120 120h145M120 170h145M120 220h145"/>
  <path d="M94 72c70 65 141 65 194 0"/>
</g>
<g opacity=".28" fill="#0b5c47"><ellipse cx="488" cy="204" rx="28" ry="74" transform="rotate(-35 488 204)"/><ellipse cx="520" cy="235" rx="22" ry="58" transform="rotate(28 520 235)"/><ellipse cx="465" cy="263" rx="20" ry="54" transform="rotate(18 465 263)"/></g>
<g filter="url(#shadow)">
  <path d="M165 462l270-116 34 34-265 128z" fill="url(#wood)"/><path d="M455 470L198 352l-34 31 252 127z" fill="url(#wood)"/>
  <path d="M178 356c92-40 182-40 274 0v112c-92-40-182-40-274 0z" fill="#f2e4c2" stroke="#b99b61" stroke-width="8"/>
  <path d="M315 357c44-35 94-48 157-41v113c-57-12-105 0-157 39z" fill="url(#green)" stroke="#d3b16e" stroke-width="8"/>
  <path d="M315 357c-42-33-92-47-157-40v113c58-12 106 0 157 38z" fill="url(#green)" stroke="#d3b16e" stroke-width="8"/>
  <path d="M205 365c45-13 82-7 110 14M425 365c-45-13-82-7-110 14" stroke="#d7bd7b" stroke-width="7" fill="none" opacity=".65"/>
  <circle cx="315" cy="410" r="42" fill="none" stroke="#d2b26c" stroke-width="8" opacity=".85"/>
  <path d="M315 377v66M282 410h66" stroke="#d2b26c" stroke-width="6" opacity=".65"/>
</g>
</svg>