<svg xmlns="http://www.w3.org/2000/svg" viewBox="0 0 720 420" role="img" aria-label="Open Quran on a table">
<defs>
  <linearGradient id="paper" x1="0" y1="0" x2="1" y2="1"><stop offset="0" stop-color="#fff9eb"/><stop offset="1" stop-color="#e5d5ad"/></linearGradient>
  <linearGradient id="table" x1="0" y1="0" x2="1" y2="1"><stop offset="0" stop-color="#765336"/><stop offset="1" stop-color="#3a2418"/></linearGradient>
  <filter id="s" x="-20%" y="-20%" width="140%" height="140%"><feDropShadow dx="0" dy="12" stdDeviation="14" flood-color="#1b130a" flood-opacity=".25"/></filter>
</defs>
<rect width="720" height="420" fill="url(#table)"/>
<g opacity=".25" fill="#0e5947"><circle cx="95" cy="75" r="34"/><circle cx="136" cy="48" r="24"/><circle cx="160" cy="94" r="30"/><circle cx="610" cy="70" r="38"/><circle cx="650" cy="112" r="24"/></g>
<g filter="url(#s)">
  <path d="M83 90c125-35 205-19 275 43v230c-73-60-162-75-275-42z" fill="url(#paper)" stroke="#b99b61" stroke-width="6"/>
  <path d="M637 90c-125-35-205-19-275 43v230c73-60 162-75 275-42z" fill="url(#paper)" stroke="#b99b61" stroke-width="6"/>
  <path d="M360 134v228" stroke="#b99b61" stroke-width="8"/>
  <g stroke="#4d4031" stroke-width="4" opacity=".55">
    <path d="M130 147c62-12 116-5 174 17M130 177c62-12 116-5 174 17M130 207c62-12 116-5 174 17M130 237c62-12 116-5 174 17M130 267c62-12 116-5 174 17"/>
    <path d="M590 147c-62-12-116-5-174 17M590 177c-62-12-116-5-174 17M590 207c-62-12-116-5-174 17M590 237c-62-12-116-5-174 17M590 267c-62-12-116-5-174 17"/>
  </g>
  <path d="M382 136v208l24-18 24 18V120" fill="#0e5947" opacity=".9"/>
</g>
</svg>